<mxfile host="app.diagrams.net" modified="2021-06-09T04:07:38.578Z" agent="5.0 (Windows NT 10.0; WOW64) AppleWebKit/537.36 (KHTML, like Gecko) coc_coc_browser/95.0.150 Chrome/89.0.4389.150 Safari/537.36" etag="wBwVMBYNWXxmhbCds2dG" version="14.7.6" type="github">
  <diagram id="kgpKYQtTHZ0yAKxKKP6v" name="MTK">
    <mxGraphModel dx="2819" dy="1009" grid="1" gridSize="10" guides="1" tooltips="1" connect="1" arrows="1" fold="1" page="1" pageScale="1" pageWidth="850" pageHeight="1100" math="0" shadow="0">
      <root>
        <mxCell id="0" />
        <mxCell id="1" parent="0" />
        <mxCell id="3nuBFxr9cyL0pnOWT2aG-1" value="&lt;font style=&quot;font-size: 25px&quot;&gt;Mở tài khoản&lt;/font&gt;" style="shape=table;childLayout=tableLayout;rowLines=0;columnLines=0;startSize=70;html=1;whiteSpace=wrap;collapsible=0;recursiveResize=0;expand=0;fontStyle=1;fillColor=#dae8fc;strokeColor=#6c8ebf;" parent="1" vertex="1">
          <mxGeometry x="-770" y="100" width="2420" height="1070" as="geometry" />
        </mxCell>
        <mxCell id="3nuBFxr9cyL0pnOWT2aG-3" value="Khách hàng" style="swimlane;horizontal=0;points=[[0,0.5],[1,0.5]];portConstraint=eastwest;startSize=40;html=1;whiteSpace=wrap;collapsible=0;recursiveResize=0;expand=0;" parent="3nuBFxr9cyL0pnOWT2aG-1" vertex="1">
          <mxGeometry y="70" width="2420" height="490" as="geometry" />
        </mxCell>
        <mxCell id="3nuBFxr9cyL0pnOWT2aG-4" value="vndirect.com.vn" style="swimlane;connectable=0;startSize=40;html=1;whiteSpace=wrap;collapsible=0;recursiveResize=0;expand=0;" parent="3nuBFxr9cyL0pnOWT2aG-3" vertex="1">
          <mxGeometry x="40" width="181" height="490" as="geometry" />
        </mxCell>
        <mxCell id="3nuBFxr9cyL0pnOWT2aG-5" style="edgeStyle=orthogonalEdgeStyle;rounded=0;orthogonalLoop=1;jettySize=auto;html=1;" parent="3nuBFxr9cyL0pnOWT2aG-4" source="3nuBFxr9cyL0pnOWT2aG-6" target="3nuBFxr9cyL0pnOWT2aG-7" edge="1">
          <mxGeometry relative="1" as="geometry" />
        </mxCell>
        <mxCell id="3nuBFxr9cyL0pnOWT2aG-6" value="Bắt đầu" style="rounded=1;whiteSpace=wrap;html=1;arcSize=50;" parent="3nuBFxr9cyL0pnOWT2aG-4" vertex="1">
          <mxGeometry x="40" y="150" width="90" height="40" as="geometry" />
        </mxCell>
        <mxCell id="3nuBFxr9cyL0pnOWT2aG-7" value="Mở tài khoản" style="rounded=0;whiteSpace=wrap;html=1;" parent="3nuBFxr9cyL0pnOWT2aG-4" vertex="1">
          <mxGeometry x="40" y="280" width="90" height="40" as="geometry" />
        </mxCell>
        <mxCell id="3nuBFxr9cyL0pnOWT2aG-8" value="Account" style="swimlane;connectable=0;startSize=40;html=1;whiteSpace=wrap;collapsible=0;recursiveResize=0;expand=0;" parent="3nuBFxr9cyL0pnOWT2aG-3" vertex="1">
          <mxGeometry x="221" width="839" height="490" as="geometry" />
        </mxCell>
        <mxCell id="F7YWZSjQQIEJhyXMOQQ_-2" value="Nhập thông tin tài khoản" style="whiteSpace=wrap;html=1;rounded=0;" vertex="1" parent="3nuBFxr9cyL0pnOWT2aG-8">
          <mxGeometry x="60" y="270" width="120" height="60" as="geometry" />
        </mxCell>
        <mxCell id="F7YWZSjQQIEJhyXMOQQ_-6" value="Nhập thông tin&lt;br&gt;định danh" style="rhombus;whiteSpace=wrap;html=1;rounded=0;" vertex="1" parent="3nuBFxr9cyL0pnOWT2aG-8">
          <mxGeometry x="390" y="244" width="112" height="112" as="geometry" />
        </mxCell>
        <mxCell id="F7YWZSjQQIEJhyXMOQQ_-4" value="Nhập STK" style="whiteSpace=wrap;html=1;rounded=0;" vertex="1" parent="3nuBFxr9cyL0pnOWT2aG-8">
          <mxGeometry x="220" y="270" width="120" height="60" as="geometry" />
        </mxCell>
        <mxCell id="F7YWZSjQQIEJhyXMOQQ_-5" value="" style="edgeStyle=orthogonalEdgeStyle;rounded=0;orthogonalLoop=1;jettySize=auto;html=1;" edge="1" parent="3nuBFxr9cyL0pnOWT2aG-8" source="F7YWZSjQQIEJhyXMOQQ_-2" target="F7YWZSjQQIEJhyXMOQQ_-4">
          <mxGeometry relative="1" as="geometry" />
        </mxCell>
        <mxCell id="F7YWZSjQQIEJhyXMOQQ_-7" value="" style="edgeStyle=orthogonalEdgeStyle;rounded=0;orthogonalLoop=1;jettySize=auto;html=1;" edge="1" parent="3nuBFxr9cyL0pnOWT2aG-8" source="F7YWZSjQQIEJhyXMOQQ_-4" target="F7YWZSjQQIEJhyXMOQQ_-6">
          <mxGeometry relative="1" as="geometry" />
        </mxCell>
        <mxCell id="F7YWZSjQQIEJhyXMOQQ_-8" value="Upload ảnh" style="whiteSpace=wrap;html=1;rounded=0;" vertex="1" parent="3nuBFxr9cyL0pnOWT2aG-8">
          <mxGeometry x="529" y="170" width="120" height="60" as="geometry" />
        </mxCell>
        <mxCell id="F7YWZSjQQIEJhyXMOQQ_-9" value="" style="edgeStyle=orthogonalEdgeStyle;rounded=0;orthogonalLoop=1;jettySize=auto;html=1;exitX=0.5;exitY=0;exitDx=0;exitDy=0;entryX=0;entryY=0.5;entryDx=0;entryDy=0;" edge="1" parent="3nuBFxr9cyL0pnOWT2aG-8" source="F7YWZSjQQIEJhyXMOQQ_-6" target="F7YWZSjQQIEJhyXMOQQ_-8">
          <mxGeometry relative="1" as="geometry" />
        </mxCell>
        <mxCell id="F7YWZSjQQIEJhyXMOQQ_-15" style="edgeStyle=orthogonalEdgeStyle;rounded=0;orthogonalLoop=1;jettySize=auto;html=1;entryX=0.5;entryY=1;entryDx=0;entryDy=0;" edge="1" parent="3nuBFxr9cyL0pnOWT2aG-8" source="F7YWZSjQQIEJhyXMOQQ_-10" target="F7YWZSjQQIEJhyXMOQQ_-12">
          <mxGeometry relative="1" as="geometry" />
        </mxCell>
        <mxCell id="F7YWZSjQQIEJhyXMOQQ_-10" value="Tự nhập" style="whiteSpace=wrap;html=1;rounded=0;" vertex="1" parent="3nuBFxr9cyL0pnOWT2aG-8">
          <mxGeometry x="529" y="370" width="120" height="60" as="geometry" />
        </mxCell>
        <mxCell id="F7YWZSjQQIEJhyXMOQQ_-11" value="" style="edgeStyle=orthogonalEdgeStyle;rounded=0;orthogonalLoop=1;jettySize=auto;html=1;exitX=0.5;exitY=1;exitDx=0;exitDy=0;entryX=0;entryY=0.5;entryDx=0;entryDy=0;" edge="1" parent="3nuBFxr9cyL0pnOWT2aG-8" source="F7YWZSjQQIEJhyXMOQQ_-6" target="F7YWZSjQQIEJhyXMOQQ_-10">
          <mxGeometry relative="1" as="geometry" />
        </mxCell>
        <mxCell id="F7YWZSjQQIEJhyXMOQQ_-12" value="Submit" style="whiteSpace=wrap;html=1;rounded=0;fillColor=#dae8fc;strokeColor=#6c8ebf;" vertex="1" parent="3nuBFxr9cyL0pnOWT2aG-8">
          <mxGeometry x="680" y="270" width="120" height="60" as="geometry" />
        </mxCell>
        <mxCell id="F7YWZSjQQIEJhyXMOQQ_-13" value="" style="edgeStyle=orthogonalEdgeStyle;rounded=0;orthogonalLoop=1;jettySize=auto;html=1;" edge="1" parent="3nuBFxr9cyL0pnOWT2aG-8" source="F7YWZSjQQIEJhyXMOQQ_-8" target="F7YWZSjQQIEJhyXMOQQ_-12">
          <mxGeometry relative="1" as="geometry" />
        </mxCell>
        <mxCell id="3nuBFxr9cyL0pnOWT2aG-11" value="iVND" style="swimlane;connectable=0;startSize=40;html=1;whiteSpace=wrap;collapsible=0;recursiveResize=0;expand=0;" parent="3nuBFxr9cyL0pnOWT2aG-3" vertex="1">
          <mxGeometry x="1060" width="1360" height="490" as="geometry" />
        </mxCell>
        <mxCell id="F7YWZSjQQIEJhyXMOQQ_-16" value="Đăng nhập iVND" style="whiteSpace=wrap;html=1;rounded=0;" vertex="1" parent="3nuBFxr9cyL0pnOWT2aG-11">
          <mxGeometry x="40" y="270" width="120" height="60" as="geometry" />
        </mxCell>
        <mxCell id="F7YWZSjQQIEJhyXMOQQ_-20" value="&lt;div style=&quot;text-align: left&quot;&gt;&lt;span&gt;Chọn gói dịch vụ&lt;/span&gt;&lt;/div&gt;&lt;div style=&quot;text-align: left&quot;&gt;&lt;span&gt;- DA&lt;/span&gt;&lt;/div&gt;&lt;div style=&quot;text-align: left&quot;&gt;&lt;span&gt;- Careby&lt;/span&gt;&lt;/div&gt;" style="whiteSpace=wrap;html=1;rounded=0;" vertex="1" parent="3nuBFxr9cyL0pnOWT2aG-11">
          <mxGeometry x="200" y="270" width="120" height="60" as="geometry" />
        </mxCell>
        <mxCell id="F7YWZSjQQIEJhyXMOQQ_-21" value="" style="edgeStyle=orthogonalEdgeStyle;rounded=0;orthogonalLoop=1;jettySize=auto;html=1;" edge="1" parent="3nuBFxr9cyL0pnOWT2aG-11" source="F7YWZSjQQIEJhyXMOQQ_-16" target="F7YWZSjQQIEJhyXMOQQ_-20">
          <mxGeometry relative="1" as="geometry" />
        </mxCell>
        <mxCell id="F7YWZSjQQIEJhyXMOQQ_-22" value="Khám sức khỏe tài chính" style="whiteSpace=wrap;html=1;rounded=0;" vertex="1" parent="3nuBFxr9cyL0pnOWT2aG-11">
          <mxGeometry x="360" y="270" width="120" height="60" as="geometry" />
        </mxCell>
        <mxCell id="F7YWZSjQQIEJhyXMOQQ_-23" value="" style="edgeStyle=orthogonalEdgeStyle;rounded=0;orthogonalLoop=1;jettySize=auto;html=1;" edge="1" parent="3nuBFxr9cyL0pnOWT2aG-11" source="F7YWZSjQQIEJhyXMOQQ_-20" target="F7YWZSjQQIEJhyXMOQQ_-22">
          <mxGeometry relative="1" as="geometry" />
        </mxCell>
        <mxCell id="F7YWZSjQQIEJhyXMOQQ_-25" value="" style="edgeStyle=orthogonalEdgeStyle;rounded=0;orthogonalLoop=1;jettySize=auto;html=1;" edge="1" parent="3nuBFxr9cyL0pnOWT2aG-11" source="F7YWZSjQQIEJhyXMOQQ_-22" target="F7YWZSjQQIEJhyXMOQQ_-24">
          <mxGeometry relative="1" as="geometry" />
        </mxCell>
        <mxCell id="F7YWZSjQQIEJhyXMOQQ_-27" value="" style="edgeStyle=orthogonalEdgeStyle;rounded=0;orthogonalLoop=1;jettySize=auto;html=1;" edge="1" parent="3nuBFxr9cyL0pnOWT2aG-11" source="F7YWZSjQQIEJhyXMOQQ_-24" target="F7YWZSjQQIEJhyXMOQQ_-26">
          <mxGeometry relative="1" as="geometry" />
        </mxCell>
        <mxCell id="F7YWZSjQQIEJhyXMOQQ_-34" style="edgeStyle=orthogonalEdgeStyle;rounded=0;orthogonalLoop=1;jettySize=auto;html=1;exitX=1;exitY=0.5;exitDx=0;exitDy=0;" edge="1" parent="3nuBFxr9cyL0pnOWT2aG-11" source="F7YWZSjQQIEJhyXMOQQ_-28" target="F7YWZSjQQIEJhyXMOQQ_-32">
          <mxGeometry relative="1" as="geometry" />
        </mxCell>
        <mxCell id="F7YWZSjQQIEJhyXMOQQ_-29" value="" style="edgeStyle=orthogonalEdgeStyle;rounded=0;orthogonalLoop=1;jettySize=auto;html=1;entryX=0;entryY=0.5;entryDx=0;entryDy=0;exitX=0.5;exitY=0;exitDx=0;exitDy=0;" edge="1" parent="3nuBFxr9cyL0pnOWT2aG-11" source="F7YWZSjQQIEJhyXMOQQ_-24" target="F7YWZSjQQIEJhyXMOQQ_-28">
          <mxGeometry relative="1" as="geometry" />
        </mxCell>
        <mxCell id="F7YWZSjQQIEJhyXMOQQ_-35" style="edgeStyle=orthogonalEdgeStyle;rounded=0;orthogonalLoop=1;jettySize=auto;html=1;exitX=1;exitY=0.5;exitDx=0;exitDy=0;entryX=0.5;entryY=1;entryDx=0;entryDy=0;" edge="1" parent="3nuBFxr9cyL0pnOWT2aG-11" source="F7YWZSjQQIEJhyXMOQQ_-30" target="F7YWZSjQQIEJhyXMOQQ_-32">
          <mxGeometry relative="1" as="geometry" />
        </mxCell>
        <mxCell id="F7YWZSjQQIEJhyXMOQQ_-31" value="" style="edgeStyle=orthogonalEdgeStyle;rounded=0;orthogonalLoop=1;jettySize=auto;html=1;exitX=0.5;exitY=1;exitDx=0;exitDy=0;entryX=0;entryY=0.5;entryDx=0;entryDy=0;" edge="1" parent="3nuBFxr9cyL0pnOWT2aG-11" source="F7YWZSjQQIEJhyXMOQQ_-24" target="F7YWZSjQQIEJhyXMOQQ_-30">
          <mxGeometry relative="1" as="geometry" />
        </mxCell>
        <mxCell id="F7YWZSjQQIEJhyXMOQQ_-33" value="" style="edgeStyle=orthogonalEdgeStyle;rounded=0;orthogonalLoop=1;jettySize=auto;html=1;" edge="1" parent="3nuBFxr9cyL0pnOWT2aG-11" source="F7YWZSjQQIEJhyXMOQQ_-26" target="F7YWZSjQQIEJhyXMOQQ_-32">
          <mxGeometry relative="1" as="geometry" />
        </mxCell>
        <mxCell id="F7YWZSjQQIEJhyXMOQQ_-60" style="edgeStyle=orthogonalEdgeStyle;rounded=0;orthogonalLoop=1;jettySize=auto;html=1;exitX=0.5;exitY=1;exitDx=0;exitDy=0;entryX=0.5;entryY=0;entryDx=0;entryDy=0;" edge="1" parent="3nuBFxr9cyL0pnOWT2aG-11" source="F7YWZSjQQIEJhyXMOQQ_-52" target="F7YWZSjQQIEJhyXMOQQ_-59">
          <mxGeometry relative="1" as="geometry" />
        </mxCell>
        <mxCell id="F7YWZSjQQIEJhyXMOQQ_-52" value="Đăng ký SPDV" style="rounded=0;whiteSpace=wrap;html=1;" vertex="1" parent="3nuBFxr9cyL0pnOWT2aG-11">
          <mxGeometry x="980" y="50" width="120" height="60" as="geometry" />
        </mxCell>
        <mxCell id="F7YWZSjQQIEJhyXMOQQ_-59" value="&lt;b&gt;&lt;font style=&quot;font-size: 30px&quot;&gt;x&lt;/font&gt;&lt;/b&gt;" style="rhombus;whiteSpace=wrap;html=1;rounded=0;fillColor=#f8cecc;strokeColor=#b85450;" vertex="1" parent="3nuBFxr9cyL0pnOWT2aG-11">
          <mxGeometry x="1000" y="150" width="80" height="80" as="geometry" />
        </mxCell>
        <mxCell id="F7YWZSjQQIEJhyXMOQQ_-26" value="Tư vấn đầu tư theo DGO" style="whiteSpace=wrap;html=1;rounded=0;" vertex="1" parent="3nuBFxr9cyL0pnOWT2aG-11">
          <mxGeometry x="680" y="270" width="120" height="60" as="geometry" />
        </mxCell>
        <mxCell id="F7YWZSjQQIEJhyXMOQQ_-30" value="Đăng ký DA" style="whiteSpace=wrap;html=1;rounded=0;" vertex="1" parent="3nuBFxr9cyL0pnOWT2aG-11">
          <mxGeometry x="680" y="350" width="120" height="60" as="geometry" />
        </mxCell>
        <mxCell id="F7YWZSjQQIEJhyXMOQQ_-32" value="&lt;b&gt;&lt;font style=&quot;font-size: 30px&quot;&gt;x&lt;/font&gt;&lt;/b&gt;" style="rhombus;whiteSpace=wrap;html=1;rounded=0;fillColor=#f8cecc;strokeColor=#b85450;" vertex="1" parent="3nuBFxr9cyL0pnOWT2aG-11">
          <mxGeometry x="840" y="260" width="80" height="80" as="geometry" />
        </mxCell>
        <mxCell id="F7YWZSjQQIEJhyXMOQQ_-28" value="Đăng ký SPDV" style="whiteSpace=wrap;html=1;rounded=0;" vertex="1" parent="3nuBFxr9cyL0pnOWT2aG-11">
          <mxGeometry x="680" y="190" width="120" height="60" as="geometry" />
        </mxCell>
        <mxCell id="F7YWZSjQQIEJhyXMOQQ_-24" value="Chọn khóa học" style="whiteSpace=wrap;html=1;rounded=0;" vertex="1" parent="3nuBFxr9cyL0pnOWT2aG-11">
          <mxGeometry x="520" y="270" width="120" height="60" as="geometry" />
        </mxCell>
        <mxCell id="F7YWZSjQQIEJhyXMOQQ_-50" value="Active sản phẩm" style="whiteSpace=wrap;html=1;rounded=0;" vertex="1" parent="3nuBFxr9cyL0pnOWT2aG-11">
          <mxGeometry x="980" y="270" width="120" height="60" as="geometry" />
        </mxCell>
        <mxCell id="F7YWZSjQQIEJhyXMOQQ_-51" value="" style="edgeStyle=orthogonalEdgeStyle;rounded=0;orthogonalLoop=1;jettySize=auto;html=1;" edge="1" parent="3nuBFxr9cyL0pnOWT2aG-11" source="F7YWZSjQQIEJhyXMOQQ_-32" target="F7YWZSjQQIEJhyXMOQQ_-50">
          <mxGeometry relative="1" as="geometry" />
        </mxCell>
        <mxCell id="F7YWZSjQQIEJhyXMOQQ_-57" value="Giao dịch sản phẩm" style="whiteSpace=wrap;html=1;rounded=0;" vertex="1" parent="3nuBFxr9cyL0pnOWT2aG-11">
          <mxGeometry x="1180" y="270" width="120" height="60" as="geometry" />
        </mxCell>
        <mxCell id="F7YWZSjQQIEJhyXMOQQ_-61" style="edgeStyle=orthogonalEdgeStyle;rounded=0;orthogonalLoop=1;jettySize=auto;html=1;exitX=0.5;exitY=1;exitDx=0;exitDy=0;entryX=0.5;entryY=0;entryDx=0;entryDy=0;" edge="1" parent="3nuBFxr9cyL0pnOWT2aG-11" source="F7YWZSjQQIEJhyXMOQQ_-59" target="F7YWZSjQQIEJhyXMOQQ_-50">
          <mxGeometry relative="1" as="geometry" />
        </mxCell>
        <mxCell id="F7YWZSjQQIEJhyXMOQQ_-58" value="" style="edgeStyle=orthogonalEdgeStyle;rounded=0;orthogonalLoop=1;jettySize=auto;html=1;" edge="1" parent="3nuBFxr9cyL0pnOWT2aG-11" source="F7YWZSjQQIEJhyXMOQQ_-50" target="F7YWZSjQQIEJhyXMOQQ_-57">
          <mxGeometry relative="1" as="geometry" />
        </mxCell>
        <mxCell id="F7YWZSjQQIEJhyXMOQQ_-78" value="KH hoàn thiện hợp đồng MTK" style="whiteSpace=wrap;html=1;rounded=0;" vertex="1" parent="3nuBFxr9cyL0pnOWT2aG-11">
          <mxGeometry x="40" y="90" width="120" height="60" as="geometry" />
        </mxCell>
        <mxCell id="F7YWZSjQQIEJhyXMOQQ_-3" value="" style="edgeStyle=orthogonalEdgeStyle;rounded=0;orthogonalLoop=1;jettySize=auto;html=1;" edge="1" parent="3nuBFxr9cyL0pnOWT2aG-3" source="3nuBFxr9cyL0pnOWT2aG-7" target="F7YWZSjQQIEJhyXMOQQ_-2">
          <mxGeometry relative="1" as="geometry" />
        </mxCell>
        <mxCell id="F7YWZSjQQIEJhyXMOQQ_-17" value="" style="edgeStyle=orthogonalEdgeStyle;rounded=0;orthogonalLoop=1;jettySize=auto;html=1;" edge="1" parent="3nuBFxr9cyL0pnOWT2aG-3" source="F7YWZSjQQIEJhyXMOQQ_-12" target="F7YWZSjQQIEJhyXMOQQ_-16">
          <mxGeometry relative="1" as="geometry" />
        </mxCell>
        <mxCell id="3nuBFxr9cyL0pnOWT2aG-15" value="Hệ thống" style="swimlane;horizontal=0;points=[[0,0.5],[1,0.5]];portConstraint=eastwest;startSize=40;html=1;whiteSpace=wrap;collapsible=0;recursiveResize=0;expand=0;" parent="3nuBFxr9cyL0pnOWT2aG-1" vertex="1">
          <mxGeometry y="560" width="2420" height="510" as="geometry" />
        </mxCell>
        <mxCell id="3nuBFxr9cyL0pnOWT2aG-16" value="" style="swimlane;connectable=0;startSize=0;html=1;whiteSpace=wrap;collapsible=0;recursiveResize=0;expand=0;" parent="3nuBFxr9cyL0pnOWT2aG-15" vertex="1">
          <mxGeometry x="40" width="181" height="510" as="geometry" />
        </mxCell>
        <mxCell id="3nuBFxr9cyL0pnOWT2aG-18" value="" style="swimlane;connectable=0;startSize=0;html=1;whiteSpace=wrap;collapsible=0;recursiveResize=0;expand=0;" parent="3nuBFxr9cyL0pnOWT2aG-15" vertex="1">
          <mxGeometry x="221" width="839" height="510" as="geometry" />
        </mxCell>
        <mxCell id="3nuBFxr9cyL0pnOWT2aG-19" value="" style="edgeStyle=orthogonalEdgeStyle;rounded=0;orthogonalLoop=1;jettySize=auto;html=1;" parent="3nuBFxr9cyL0pnOWT2aG-18" target="3nuBFxr9cyL0pnOWT2aG-22" edge="1">
          <mxGeometry relative="1" as="geometry">
            <mxPoint x="499" y="40.00000000000023" as="sourcePoint" />
          </mxGeometry>
        </mxCell>
        <mxCell id="F7YWZSjQQIEJhyXMOQQ_-69" value="Lưu thông tin khách hàng" style="shape=dataStorage;whiteSpace=wrap;html=1;fixedSize=1;" vertex="1" parent="3nuBFxr9cyL0pnOWT2aG-18">
          <mxGeometry x="549" y="40" width="100" height="80" as="geometry" />
        </mxCell>
        <mxCell id="F7YWZSjQQIEJhyXMOQQ_-70" value="Tạo cusID" style="whiteSpace=wrap;html=1;" vertex="1" parent="3nuBFxr9cyL0pnOWT2aG-18">
          <mxGeometry x="699" y="50" width="120" height="60" as="geometry" />
        </mxCell>
        <mxCell id="F7YWZSjQQIEJhyXMOQQ_-71" value="" style="edgeStyle=orthogonalEdgeStyle;rounded=0;orthogonalLoop=1;jettySize=auto;html=1;" edge="1" parent="3nuBFxr9cyL0pnOWT2aG-18" source="F7YWZSjQQIEJhyXMOQQ_-69" target="F7YWZSjQQIEJhyXMOQQ_-70">
          <mxGeometry relative="1" as="geometry" />
        </mxCell>
        <mxCell id="F7YWZSjQQIEJhyXMOQQ_-75" value="" style="edgeStyle=orthogonalEdgeStyle;rounded=0;orthogonalLoop=1;jettySize=auto;html=1;" edge="1" parent="3nuBFxr9cyL0pnOWT2aG-18" source="F7YWZSjQQIEJhyXMOQQ_-72" target="F7YWZSjQQIEJhyXMOQQ_-74">
          <mxGeometry relative="1" as="geometry" />
        </mxCell>
        <mxCell id="F7YWZSjQQIEJhyXMOQQ_-72" value="Welcome mail + Thời hạn hoàn thiện hợp đồng" style="whiteSpace=wrap;html=1;" vertex="1" parent="3nuBFxr9cyL0pnOWT2aG-18">
          <mxGeometry x="699" y="160" width="120" height="60" as="geometry" />
        </mxCell>
        <mxCell id="F7YWZSjQQIEJhyXMOQQ_-73" value="" style="edgeStyle=orthogonalEdgeStyle;rounded=0;orthogonalLoop=1;jettySize=auto;html=1;" edge="1" parent="3nuBFxr9cyL0pnOWT2aG-18" source="F7YWZSjQQIEJhyXMOQQ_-70" target="F7YWZSjQQIEJhyXMOQQ_-72">
          <mxGeometry relative="1" as="geometry" />
        </mxCell>
        <mxCell id="F7YWZSjQQIEJhyXMOQQ_-74" value="Nhăc hoàn thiện hợp đồng" style="whiteSpace=wrap;html=1;" vertex="1" parent="3nuBFxr9cyL0pnOWT2aG-18">
          <mxGeometry x="699" y="280" width="120" height="60" as="geometry" />
        </mxCell>
        <mxCell id="F7YWZSjQQIEJhyXMOQQ_-76" value="Thông báo khi bị chặn đặt lệnh" style="whiteSpace=wrap;html=1;" vertex="1" parent="3nuBFxr9cyL0pnOWT2aG-18">
          <mxGeometry x="699" y="380" width="120" height="60" as="geometry" />
        </mxCell>
        <mxCell id="F7YWZSjQQIEJhyXMOQQ_-77" value="" style="edgeStyle=orthogonalEdgeStyle;rounded=0;orthogonalLoop=1;jettySize=auto;html=1;" edge="1" parent="3nuBFxr9cyL0pnOWT2aG-18" source="F7YWZSjQQIEJhyXMOQQ_-74" target="F7YWZSjQQIEJhyXMOQQ_-76">
          <mxGeometry relative="1" as="geometry" />
        </mxCell>
        <mxCell id="3nuBFxr9cyL0pnOWT2aG-23" value="" style="swimlane;connectable=0;startSize=0;html=1;whiteSpace=wrap;collapsible=0;recursiveResize=0;expand=0;swimlaneLine=1;" parent="3nuBFxr9cyL0pnOWT2aG-15" vertex="1">
          <mxGeometry x="1060" width="1360" height="510" as="geometry" />
        </mxCell>
        <mxCell id="F7YWZSjQQIEJhyXMOQQ_-66" style="edgeStyle=orthogonalEdgeStyle;rounded=0;orthogonalLoop=1;jettySize=auto;html=1;exitX=1;exitY=0.5;exitDx=0;exitDy=0;" edge="1" parent="3nuBFxr9cyL0pnOWT2aG-23" source="F7YWZSjQQIEJhyXMOQQ_-62" target="F7YWZSjQQIEJhyXMOQQ_-64">
          <mxGeometry relative="1" as="geometry" />
        </mxCell>
        <mxCell id="F7YWZSjQQIEJhyXMOQQ_-62" value="Ghi nhận nhu cầu" style="whiteSpace=wrap;html=1;rounded=0;" vertex="1" parent="3nuBFxr9cyL0pnOWT2aG-23">
          <mxGeometry x="200" y="80" width="120" height="60" as="geometry" />
        </mxCell>
        <mxCell id="F7YWZSjQQIEJhyXMOQQ_-64" value="Ghi nhận kết quả" style="whiteSpace=wrap;html=1;rounded=0;" vertex="1" parent="3nuBFxr9cyL0pnOWT2aG-23">
          <mxGeometry x="360" y="80" width="120" height="60" as="geometry" />
        </mxCell>
        <mxCell id="F7YWZSjQQIEJhyXMOQQ_-67" value="Ghi nhận nhu cầu" style="whiteSpace=wrap;html=1;rounded=0;" vertex="1" parent="3nuBFxr9cyL0pnOWT2aG-23">
          <mxGeometry x="520" y="80" width="120" height="60" as="geometry" />
        </mxCell>
        <mxCell id="F7YWZSjQQIEJhyXMOQQ_-68" value="" style="edgeStyle=orthogonalEdgeStyle;rounded=0;orthogonalLoop=1;jettySize=auto;html=1;" edge="1" parent="3nuBFxr9cyL0pnOWT2aG-23" source="F7YWZSjQQIEJhyXMOQQ_-64" target="F7YWZSjQQIEJhyXMOQQ_-67">
          <mxGeometry relative="1" as="geometry" />
        </mxCell>
        <mxCell id="F7YWZSjQQIEJhyXMOQQ_-41" value="" style="edgeStyle=orthogonalEdgeStyle;rounded=0;orthogonalLoop=1;jettySize=auto;html=1;" edge="1" parent="1" source="F7YWZSjQQIEJhyXMOQQ_-38" target="F7YWZSjQQIEJhyXMOQQ_-40">
          <mxGeometry relative="1" as="geometry" />
        </mxCell>
        <mxCell id="F7YWZSjQQIEJhyXMOQQ_-46" style="edgeStyle=orthogonalEdgeStyle;rounded=0;orthogonalLoop=1;jettySize=auto;html=1;exitX=0.5;exitY=1;exitDx=0;exitDy=0;entryX=0;entryY=0.5;entryDx=0;entryDy=0;" edge="1" parent="1" source="F7YWZSjQQIEJhyXMOQQ_-38" target="F7YWZSjQQIEJhyXMOQQ_-44">
          <mxGeometry relative="1" as="geometry" />
        </mxCell>
        <mxCell id="F7YWZSjQQIEJhyXMOQQ_-47" style="edgeStyle=orthogonalEdgeStyle;rounded=0;orthogonalLoop=1;jettySize=auto;html=1;exitX=0.5;exitY=0;exitDx=0;exitDy=0;entryX=0.5;entryY=0;entryDx=0;entryDy=0;" edge="1" parent="1" source="F7YWZSjQQIEJhyXMOQQ_-38" target="F7YWZSjQQIEJhyXMOQQ_-42">
          <mxGeometry relative="1" as="geometry">
            <Array as="points">
              <mxPoint x="940" y="1280" />
              <mxPoint x="1510" y="1280" />
            </Array>
          </mxGeometry>
        </mxCell>
        <mxCell id="F7YWZSjQQIEJhyXMOQQ_-38" value="&lt;b&gt;&lt;font style=&quot;font-size: 30px&quot;&gt;x&lt;/font&gt;&lt;/b&gt;" style="rhombus;whiteSpace=wrap;html=1;rounded=0;fillColor=#f8cecc;strokeColor=#b85450;" vertex="1" parent="1">
          <mxGeometry x="900" y="1340" width="80" height="80" as="geometry" />
        </mxCell>
        <mxCell id="F7YWZSjQQIEJhyXMOQQ_-43" value="" style="edgeStyle=orthogonalEdgeStyle;rounded=0;orthogonalLoop=1;jettySize=auto;html=1;" edge="1" parent="1" source="F7YWZSjQQIEJhyXMOQQ_-40" target="F7YWZSjQQIEJhyXMOQQ_-42">
          <mxGeometry relative="1" as="geometry" />
        </mxCell>
        <mxCell id="F7YWZSjQQIEJhyXMOQQ_-40" value="Hoàn thiện hồ sơ/Đồng ý khung pháp lý" style="whiteSpace=wrap;html=1;rounded=0;strokeColor=#b85450;fillColor=#f8cecc;" vertex="1" parent="1">
          <mxGeometry x="1275" y="1350" width="120" height="60" as="geometry" />
        </mxCell>
        <mxCell id="F7YWZSjQQIEJhyXMOQQ_-42" value="Active sản phẩm" style="whiteSpace=wrap;html=1;rounded=0;strokeColor=#b85450;fillColor=#f8cecc;" vertex="1" parent="1">
          <mxGeometry x="1450" y="1350" width="120" height="60" as="geometry" />
        </mxCell>
        <mxCell id="F7YWZSjQQIEJhyXMOQQ_-49" value="" style="edgeStyle=orthogonalEdgeStyle;rounded=0;orthogonalLoop=1;jettySize=auto;html=1;" edge="1" parent="1" source="F7YWZSjQQIEJhyXMOQQ_-44" target="F7YWZSjQQIEJhyXMOQQ_-48">
          <mxGeometry relative="1" as="geometry" />
        </mxCell>
        <mxCell id="F7YWZSjQQIEJhyXMOQQ_-44" value="Ghi nhận nhu cầu và báo cho sale" style="whiteSpace=wrap;html=1;rounded=0;strokeColor=#b85450;fillColor=#f8cecc;" vertex="1" parent="1">
          <mxGeometry x="1275" y="1470" width="120" height="60" as="geometry" />
        </mxCell>
        <mxCell id="F7YWZSjQQIEJhyXMOQQ_-48" value="Flow chăm sóc theo product lead" style="whiteSpace=wrap;html=1;rounded=0;strokeColor=#b85450;fillColor=#f8cecc;" vertex="1" parent="1">
          <mxGeometry x="1450" y="1470" width="120" height="60" as="geometry" />
        </mxCell>
      </root>
    </mxGraphModel>
  </diagram>
</mxfile>
